<svg xmlns="http://www.w3.org/2000/svg" width="29" height="28" fill="none" xmlns:v="https://vecta.io/nano"><path d="M25.93 11.715h-.94v-.048h-10.5v4.667h6.593C20.121 19.05 17.537 21 14.49 21a7 7 0 0 1 0-14c1.784 0 3.408.673 4.644 1.773l3.3-3.3c-2.084-1.942-4.871-3.14-7.944-3.14A11.67 11.67 0 0 0 2.823 14 11.67 11.67 0 0 0 14.49 25.667 11.67 11.67 0 0 0 26.157 14c0-.782-.081-1.546-.227-2.285z" fill="#fbc02d"/><path d="M4.168 8.57l3.833 2.811C9.038 8.813 11.55 7 14.49 7c1.784 0 3.408.673 4.644 1.773l3.3-3.3c-2.084-1.942-4.871-3.14-7.944-3.14-4.481 0-8.367 2.53-10.321 6.236z" fill="#e53935"/><path d="M14.49 25.667c3.013 0 5.752-1.153 7.822-3.029l-3.611-3.056C17.53 20.47 16.074 21 14.49 21c-3.035 0-5.611-1.935-6.582-4.635l-3.804 2.931c1.931 3.778 5.852 6.371 10.386 6.371z" fill="#4caf50"/><path d="M25.93 11.715l-.009-.048h-.93-10.5v4.667h6.593c-.462 1.305-1.301 2.43-2.384 3.25l3.613 3.054c-.255.232 3.845-2.804 3.845-8.637a11.74 11.74 0 0 0-.227-2.285z" fill="#1565c0"/></svg>