<?xml version="1.0" encoding="UTF-8"?>
<svg fill="none" viewBox="0 0 306 35" xmlns="http://www.w3.org/2000/svg">
<path d="m9.9 11.73c1.44 0 2.73 0.32 3.87 0.96 1.16 0.62 2.06 1.52 2.7 2.7 0.66 1.16 0.99 2.52 0.99 4.08 0 1.66-0.36 3.06-1.08 4.2s-1.66 1.99-2.82 2.55-2.41 0.84-3.75 0.84c-1.14 0-2.22-0.24-3.24-0.72-1-0.5-1.68-1.02-2.04-1.56-0.16 0.4-0.41 0.77-0.75 1.11-0.32 0.32-0.61 0.54-0.87 0.66-0.2 0.1-0.42 0.15-0.66 0.15-0.36 0-0.67-0.13-0.93-0.39-0.26-0.28-0.39-0.58-0.39-0.9 0-0.3 0.12-0.56 0.36-0.78 0.06-0.06 0.18-0.16 0.36-0.3 0.2-0.16 0.35-0.37 0.45-0.63 0.12-0.36 0.18-0.95 0.18-1.77l-0.06-2.91c0-0.48-0.02-1.64-0.06-3.48-0.04-2.52-0.06-4.19-0.06-5.01-0.04-3.68-0.1-6.49-0.18-8.43-0.02-0.38 0.11-0.68 0.39-0.9 0.3-0.22 0.67-0.33 1.11-0.33 0.4 0 0.73 0.1 0.99 0.3 0.28 0.2 0.43 0.47 0.45 0.81 0.14 2.64 0.22 5.48 0.24 8.52l0.06 3.03c0.44-0.52 1.06-0.95 1.86-1.29s1.76-0.51 2.88-0.51zm-0.12 12.96c0.8 0 1.55-0.19 2.25-0.57 0.72-0.38 1.3-0.96 1.74-1.74 0.46-0.8 0.69-1.79 0.69-2.97 0-1.68-0.44-2.98-1.32-3.9-0.88-0.94-2.04-1.41-3.48-1.41-1 0-1.9 0.25-2.7 0.75-0.78 0.5-1.36 1.05-1.74 1.65v2.25c0 0.92 0.03 1.83 0.09 2.73 0.04 0.56 0.27 1.09 0.69 1.59 0.44 0.48 0.99 0.87 1.65 1.17 0.68 0.3 1.39 0.45 2.13 0.45zm18.352 2.37c-2.36 0-4.29-0.62-5.79-1.86-1.48-1.26-2.22-3.14-2.22-5.64 0-1.58 0.31-2.98 0.93-4.2 0.64-1.22 1.54-2.17 2.7-2.85 1.18-0.68 2.57-1.02 4.17-1.02 1.56 0 2.95 0.33 4.17 0.99 1.24 0.66 2.2 1.61 2.88 2.85 0.7 1.22 1.05 2.65 1.05 4.29 0 2.4-0.72 4.24-2.16 5.52s-3.35 1.92-5.73 1.92zm-0.06-2.37c1.48 0 2.68-0.43 3.6-1.29 0.92-0.88 1.38-2.16 1.38-3.84 0-1.08-0.21-2.05-0.63-2.91-0.4-0.88-0.99-1.56-1.77-2.04-0.76-0.5-1.64-0.75-2.64-0.75-1.48 0-2.67 0.52-3.57 1.56-0.88 1.02-1.32 2.39-1.32 4.11 0 1.76 0.47 3.06 1.41 3.9s2.12 1.26 3.54 1.26zm18.71-12.99c1.7 0 2.99 0.61 3.87 1.83 0.9 1.2 1.35 3 1.35 5.4v6.93c0 0.38-0.13 0.67-0.39 0.87-0.26 0.18-0.61 0.27-1.05 0.27s-0.81-0.09-1.11-0.27-0.45-0.45-0.45-0.81l0.03-7.02c0-1.66-0.19-2.86-0.57-3.6-0.36-0.76-1.01-1.14-1.95-1.14-1.8 0-2.97 1.44-3.51 4.32-0.18 0.88-0.27 1.94-0.27 3.18l0.03 4.26c0 0.36-0.13 0.64-0.39 0.84-0.26 0.18-0.61 0.27-1.05 0.27-0.48 0-0.86-0.1-1.14-0.3-0.26-0.22-0.39-0.49-0.39-0.81 0-2-0.04-4.32-0.12-6.96-0.04-1.56-0.06-2.64-0.06-3.24-0.02-0.44-0.09-0.78-0.21-1.02-0.1-0.26-0.3-0.64-0.6-1.14-0.08-0.2-0.12-0.37-0.12-0.51 0-0.3 0.17-0.58 0.51-0.84s0.67-0.39 0.99-0.39c0.34 0 0.67 0.22 0.99 0.66 0.54 0.78 0.81 1.49 0.81 2.13v0.36c0.36-0.94 0.92-1.72 1.68-2.34 0.78-0.62 1.82-0.93 3.12-0.93zm16.426 15.48c-1.46 0-2.79-0.29-3.99-0.87-1.18-0.6-2.12-1.48-2.82-2.64-0.68-1.18-1.02-2.61-1.02-4.29 0-1.56 0.32-2.92 0.96-4.08s1.55-2.05 2.73-2.67 2.56-0.93 4.14-0.93c1.02 0 1.91 0.14 2.67 0.42s1.38 0.64 1.86 1.08c0.12-4.82 0.27-8.48 0.45-10.98 0.04-0.34 0.19-0.62 0.45-0.84 0.28-0.22 0.62-0.33 1.02-0.33 0.46 0 0.83 0.12 1.11 0.36 0.3 0.24 0.44 0.55 0.42 0.93-0.14 1.32-0.27 3.74-0.39 7.26-0.1 3.52-0.15 6.66-0.15 9.42 0 2.66 0.06 4.23 0.18 4.71 0.22 0.82 0.52 1.33 0.9 1.53 0.08 0.04 0.12 0.18 0.12 0.42 0 0.36-0.17 0.69-0.51 0.99-0.32 0.3-0.68 0.45-1.08 0.45-0.34 0-0.61-0.08-0.81-0.24-0.7-0.4-1.17-1.1-1.41-2.1-0.5 0.74-1.17 1.33-2.01 1.77-0.84 0.42-1.78 0.63-2.82 0.63zm-0.03-2.49c0.76 0 1.48-0.18 2.16-0.54 0.7-0.36 1.26-0.83 1.68-1.41 0.42-0.6 0.63-1.23 0.63-1.89 0-0.92 0.01-1.64 0.03-2.16l0.03-2.4c-0.3-0.52-0.87-1-1.71-1.44-0.82-0.46-1.72-0.69-2.7-0.69-1.52 0-2.73 0.47-3.63 1.41-0.88 0.94-1.32 2.24-1.32 3.9 0 1.14 0.23 2.11 0.69 2.91 0.48 0.78 1.08 1.36 1.8 1.74 0.74 0.38 1.52 0.57 2.34 0.57zm14.724-14.22c-0.62 0-1.13-0.2-1.53-0.6-0.4-0.42-0.6-0.94-0.6-1.56 0-0.6 0.2-1.1 0.6-1.5 0.42-0.4 0.95-0.6 1.59-0.6s1.15 0.19 1.53 0.57c0.4 0.38 0.6 0.88 0.6 1.5s-0.21 1.14-0.63 1.56c-0.4 0.42-0.92 0.63-1.56 0.63zm-0.42 16.35c-0.46 0-0.83-0.11-1.11-0.33s-0.42-0.53-0.42-0.93l0.3-12.18c0-0.4 0.14-0.71 0.42-0.93 0.28-0.24 0.64-0.36 1.08-0.36s0.8 0.12 1.08 0.36c0.3 0.24 0.45 0.56 0.45 0.96l-0.3 12.18c-0.02 0.4-0.17 0.71-0.45 0.93-0.26 0.2-0.61 0.3-1.05 0.3zm14.652-15.12c1.7 0 2.99 0.61 3.87 1.83 0.9 1.2 1.35 3 1.35 5.4v6.93c0 0.38-0.13 0.67-0.39 0.87-0.26 0.18-0.61 0.27-1.05 0.27s-0.81-0.09-1.11-0.27-0.45-0.45-0.45-0.81l0.03-7.02c0-1.66-0.19-2.86-0.57-3.6-0.36-0.76-1.01-1.14-1.95-1.14-1.8 0-2.97 1.44-3.51 4.32-0.18 0.88-0.27 1.94-0.27 3.18l0.03 4.26c0 0.36-0.13 0.64-0.39 0.84-0.26 0.18-0.61 0.27-1.05 0.27-0.48 0-0.86-0.1-1.14-0.3-0.26-0.22-0.39-0.49-0.39-0.81 0-2-0.04-4.32-0.12-6.96-0.04-1.56-0.06-2.64-0.06-3.24-0.02-0.44-0.09-0.78-0.21-1.02-0.1-0.26-0.3-0.64-0.6-1.14-0.08-0.2-0.12-0.37-0.12-0.51 0-0.3 0.17-0.58 0.51-0.84s0.67-0.39 0.99-0.39c0.34 0 0.67 0.22 0.99 0.66 0.54 0.78 0.81 1.49 0.81 2.13v0.36c0.36-0.94 0.92-1.72 1.68-2.34 0.78-0.62 1.82-0.93 3.12-0.93zm22.906 11.01c0.16 1.06 0.27 1.89 0.33 2.49 0.08 0.6 0.12 1.18 0.12 1.74 0 1.48-0.31 2.79-0.93 3.93-0.6 1.14-1.46 2.03-2.58 2.67-1.1 0.64-2.38 0.96-3.84 0.96-1.12 0-2.15-0.22-3.09-0.66s-1.69-1.04-2.25-1.8-0.84-1.58-0.84-2.46c0-0.76 0.47-1.14 1.41-1.14 0.6 0 0.96 0.29 1.08 0.87 0.2 0.92 0.61 1.6 1.23 2.04 0.64 0.46 1.44 0.69 2.4 0.69 1.44 0 2.54-0.44 3.3-1.32 0.78-0.88 1.17-2.16 1.17-3.84 0-0.54-0.05-1.14-0.15-1.8-0.46 0.56-1.09 1.02-1.89 1.38-0.78 0.34-1.68 0.51-2.7 0.51-1.44 0-2.72-0.33-3.84-0.99-1.1-0.68-1.95-1.59-2.55-2.73s-0.9-2.38-0.9-3.72c0-1.38 0.29-2.66 0.87-3.84 0.6-1.18 1.44-2.11 2.52-2.79 1.1-0.7 2.35-1.05 3.75-1.05 1.56 0 2.79 0.39 3.69 1.17 0.08-0.24 0.26-0.68 0.54-1.32 0.2-0.4 0.53-0.6 0.99-0.6 0.38 0 0.74 0.11 1.08 0.33 0.36 0.2 0.55 0.46 0.57 0.78 0 0.14-0.01 0.24-0.03 0.3-0.34 1.08-0.54 1.76-0.6 2.04l1.02 7.32 0.12 0.84zm-7.08 1.74c0.88 0 1.73-0.24 2.55-0.72 0.84-0.48 1.34-1 1.5-1.56-0.12-1.14-0.35-2.71-0.69-4.71-0.02-0.2-0.1-0.71-0.24-1.53-0.18-0.38-0.58-0.74-1.2-1.08-0.6-0.34-1.28-0.51-2.04-0.51-0.84 0-1.59 0.23-2.25 0.69-0.66 0.44-1.18 1.06-1.56 1.86-0.36 0.78-0.54 1.65-0.54 2.61 0 1.38 0.38 2.55 1.14 3.51 0.78 0.96 1.89 1.44 3.33 1.44zm17.819 2.61c-2.36 0-4.29-0.62-5.79-1.86-1.48-1.26-2.22-3.14-2.22-5.64 0-1.58 0.31-2.98 0.93-4.2 0.64-1.22 1.54-2.17 2.7-2.85 1.18-0.68 2.57-1.02 4.17-1.02 1.56 0 2.95 0.33 4.17 0.99 1.24 0.66 2.2 1.61 2.88 2.85 0.7 1.22 1.05 2.65 1.05 4.29 0 2.4-0.72 4.24-2.16 5.52s-3.35 1.92-5.73 1.92zm-0.06-2.37c1.48 0 2.68-0.43 3.6-1.29 0.92-0.88 1.38-2.16 1.38-3.84 0-1.08-0.21-2.05-0.63-2.91-0.4-0.88-0.99-1.56-1.77-2.04-0.76-0.5-1.64-0.75-2.64-0.75-1.48 0-2.67 0.52-3.57 1.56-0.88 1.02-1.32 2.39-1.32 4.11 0 1.76 0.47 3.06 1.41 3.9s2.12 1.26 3.54 1.26zm16.82 2.19c-1.58 0-3.15-2.17-4.71-6.51-0.48-1.38-0.89-2.76-1.23-4.14s-0.51-2.36-0.51-2.94c0-0.46 0.13-0.8 0.39-1.02 0.28-0.24 0.65-0.36 1.11-0.36 0.38 0 0.7 0.1 0.96 0.3s0.42 0.49 0.48 0.87c0.24 1.8 0.7 3.8 1.38 6 0.38 1.18 0.78 2.24 1.2 3.18 0.44 0.92 0.75 1.38 0.93 1.38 0.2 0 0.53-0.46 0.99-1.38 0.46-0.94 0.9-2.01 1.32-3.21 0.46-1.42 0.79-2.58 0.99-3.48 0.22-0.92 0.38-1.79 0.48-2.61 0.04-0.36 0.19-0.65 0.45-0.87s0.61-0.33 1.05-0.33c0.46 0 0.82 0.13 1.08 0.39s0.39 0.62 0.39 1.08c0 0.6-0.18 1.56-0.54 2.88-0.34 1.32-0.78 2.7-1.32 4.14-0.82 2.14-1.63 3.78-2.43 4.92s-1.62 1.71-2.46 1.71zm17.706 0.3c-1.7 0-3.16-0.35-4.38-1.05-1.2-0.7-2.11-1.64-2.73-2.82-0.6-1.18-0.9-2.48-0.9-3.9 0-1.46 0.33-2.78 0.99-3.96 0.66-1.2 1.59-2.14 2.79-2.82 1.2-0.7 2.57-1.05 4.11-1.05 1.36 0 2.58 0.28 3.66 0.84 1.1 0.54 1.96 1.31 2.58 2.31s0.93 2.14 0.93 3.42c0 0.68-0.1 1.17-0.3 1.47-0.2 0.28-0.61 0.43-1.23 0.45l-10.83 0.15c0 0.66 0.21 1.34 0.63 2.04s1.02 1.29 1.8 1.77c0.8 0.46 1.73 0.69 2.79 0.69 0.76 0 1.4-0.1 1.92-0.3 0.54-0.22 0.97-0.47 1.29-0.75 0.32-0.3 0.7-0.69 1.14-1.17 0.22-0.22 0.5-0.33 0.84-0.33 0.32 0 0.62 0.13 0.9 0.39 0.3 0.24 0.45 0.52 0.45 0.84 0 0.26-0.09 0.51-0.27 0.75-0.56 0.8-1.31 1.51-2.25 2.13-0.94 0.6-2.25 0.9-3.93 0.9zm4.23-9.24c0.12 0 0.2-0.03 0.24-0.09 0.06-0.08 0.09-0.19 0.09-0.33 0-1.06-0.45-1.92-1.35-2.58-0.88-0.68-1.99-1.02-3.33-1.02-1.02 0-1.93 0.24-2.73 0.72-0.78 0.48-1.39 1.06-1.83 1.74-0.42 0.66-0.63 1.24-0.63 1.74l9.54-0.18zm14.02-6.42c1.28 0 2.3 0.41 3.06 1.23s1.14 1.84 1.14 3.06c0 1.16-0.36 2.07-1.08 2.73s-1.65 0.99-2.79 0.99c-0.5 0-0.86-0.07-1.08-0.21-0.2-0.16-0.3-0.43-0.3-0.81 0-0.34 0.07-0.58 0.21-0.72 0.16-0.16 0.39-0.25 0.69-0.27 1.26-0.1 1.89-0.69 1.89-1.77 0-0.52-0.15-0.96-0.45-1.32-0.28-0.36-0.72-0.54-1.32-0.54-0.7 0-1.33 0.33-1.89 0.99-0.54 0.66-0.98 1.46-1.32 2.4-0.32 0.94-0.51 1.83-0.57 2.67-0.14 1.5-0.21 3.18-0.21 5.04 0 0.9-0.1 1.5-0.3 1.8s-0.58 0.45-1.14 0.45c-0.54 0-0.93-0.11-1.17-0.33-0.22-0.24-0.33-0.63-0.33-1.17-0.02-0.38-0.03-2.19-0.03-5.43 0-1.62-0.11-3.49-0.33-5.61l-0.18-2.31c-0.02-0.38 0.09-0.68 0.33-0.9 0.26-0.22 0.62-0.33 1.08-0.33 0.8 0 1.22 0.36 1.26 1.08l0.21 3.06c0.36-1.14 0.94-2.05 1.74-2.73 0.8-0.7 1.76-1.05 2.88-1.05zm15.654 0.21c1.44 0 2.73 0.32 3.87 0.96 1.16 0.62 2.06 1.52 2.7 2.7 0.66 1.16 0.99 2.52 0.99 4.08 0 1.66-0.36 3.06-1.08 4.2s-1.66 1.99-2.82 2.55-2.41 0.84-3.75 0.84c-1.14 0-2.22-0.24-3.24-0.72-1-0.5-1.68-1.02-2.04-1.56-0.16 0.4-0.41 0.77-0.75 1.11-0.32 0.32-0.61 0.54-0.87 0.66-0.2 0.1-0.42 0.15-0.66 0.15-0.36 0-0.67-0.13-0.93-0.39-0.26-0.28-0.39-0.58-0.39-0.9 0-0.3 0.12-0.56 0.36-0.78 0.06-0.06 0.18-0.16 0.36-0.3 0.2-0.16 0.35-0.37 0.45-0.63 0.12-0.36 0.18-0.95 0.18-1.77l-0.06-2.91c0-0.48-0.02-1.64-0.06-3.48-0.04-2.52-0.06-4.19-0.06-5.01-0.04-3.68-0.1-6.49-0.18-8.43-0.02-0.38 0.11-0.68 0.39-0.9 0.3-0.22 0.67-0.33 1.11-0.33 0.4 0 0.73 0.1 0.99 0.3 0.28 0.2 0.43 0.47 0.45 0.81 0.14 2.64 0.22 5.48 0.24 8.52l0.06 3.03c0.44-0.52 1.06-0.95 1.86-1.29s1.76-0.51 2.88-0.51zm-0.12 12.96c0.8 0 1.55-0.19 2.25-0.57 0.72-0.38 1.3-0.96 1.74-1.74 0.46-0.8 0.69-1.79 0.69-2.97 0-1.68-0.44-2.98-1.32-3.9-0.88-0.94-2.04-1.41-3.48-1.41-1 0-1.9 0.25-2.7 0.75-0.78 0.5-1.36 1.05-1.74 1.65v2.25c0 0.92 0.03 1.83 0.09 2.73 0.04 0.56 0.27 1.09 0.69 1.59 0.44 0.48 0.99 0.87 1.65 1.17 0.68 0.3 1.39 0.45 2.13 0.45zm14.362-14.22c-0.62 0-1.13-0.2-1.53-0.6-0.4-0.42-0.6-0.94-0.6-1.56 0-0.6 0.2-1.1 0.6-1.5 0.42-0.4 0.95-0.6 1.59-0.6s1.15 0.19 1.53 0.57c0.4 0.38 0.6 0.88 0.6 1.5s-0.21 1.14-0.63 1.56c-0.4 0.42-0.92 0.63-1.56 0.63zm-0.42 16.35c-0.46 0-0.83-0.11-1.11-0.33s-0.42-0.53-0.42-0.93l0.3-12.18c0-0.4 0.14-0.71 0.42-0.93 0.28-0.24 0.64-0.36 1.08-0.36s0.8 0.12 1.08 0.36c0.3 0.24 0.45 0.56 0.45 0.96l-0.3 12.18c-0.02 0.4-0.17 0.71-0.45 0.93-0.26 0.2-0.61 0.3-1.05 0.3zm14.651-15.12c1.7 0 2.99 0.61 3.87 1.83 0.9 1.2 1.35 3 1.35 5.4v6.93c0 0.38-0.13 0.67-0.39 0.87-0.26 0.18-0.61 0.27-1.05 0.27s-0.81-0.09-1.11-0.27-0.45-0.45-0.45-0.81l0.03-7.02c0-1.66-0.19-2.86-0.57-3.6-0.36-0.76-1.01-1.14-1.95-1.14-1.8 0-2.97 1.44-3.51 4.32-0.18 0.88-0.27 1.94-0.27 3.18l0.03 4.26c0 0.36-0.13 0.64-0.39 0.84-0.26 0.18-0.61 0.27-1.05 0.27-0.48 0-0.86-0.1-1.14-0.3-0.26-0.22-0.39-0.49-0.39-0.81 0-2-0.04-4.32-0.12-6.96-0.04-1.56-0.06-2.64-0.06-3.24-0.02-0.44-0.09-0.78-0.21-1.02-0.1-0.26-0.3-0.64-0.6-1.14-0.08-0.2-0.12-0.37-0.12-0.51 0-0.3 0.17-0.58 0.51-0.84s0.67-0.39 0.99-0.39c0.34 0 0.67 0.22 0.99 0.66 0.54 0.78 0.81 1.49 0.81 2.13v0.36c0.36-0.94 0.92-1.72 1.68-2.34 0.78-0.62 1.82-0.93 3.12-0.93zm16.427 15.48c-1.46 0-2.79-0.29-3.99-0.87-1.18-0.6-2.12-1.48-2.82-2.64-0.68-1.18-1.02-2.61-1.02-4.29 0-1.56 0.32-2.92 0.96-4.08s1.55-2.05 2.73-2.67 2.56-0.93 4.14-0.93c1.02 0 1.91 0.14 2.67 0.42s1.38 0.64 1.86 1.08c0.12-4.82 0.27-8.48 0.45-10.98 0.04-0.34 0.19-0.62 0.45-0.84 0.28-0.22 0.62-0.33 1.02-0.33 0.46 0 0.83 0.12 1.11 0.36 0.3 0.24 0.44 0.55 0.42 0.93-0.14 1.32-0.27 3.74-0.391 7.26-0.099 3.52-0.149 6.66-0.149 9.42 0 2.66 0.06 4.23 0.18 4.71 0.22 0.82 0.52 1.33 0.9 1.53 0.08 0.04 0.12 0.18 0.12 0.42 0 0.36-0.17 0.69-0.51 0.99-0.32 0.3-0.68 0.45-1.08 0.45-0.34 0-0.61-0.08-0.81-0.24-0.7-0.4-1.17-1.1-1.41-2.1-0.5 0.74-1.17 1.33-2.01 1.77-0.84 0.42-1.78 0.63-2.82 0.63zm-0.03-2.49c0.76 0 1.48-0.18 2.16-0.54 0.7-0.36 1.26-0.83 1.68-1.41 0.42-0.6 0.63-1.23 0.63-1.89 0-0.92 0.01-1.64 0.03-2.16l0.03-2.4c-0.3-0.52-0.87-1-1.71-1.44-0.82-0.46-1.72-0.69-2.7-0.69-1.52 0-2.73 0.47-3.63 1.41-0.88 0.94-1.32 2.24-1.32 3.9 0 1.14 0.23 2.11 0.69 2.91 0.48 0.78 1.08 1.36 1.8 1.74 0.74 0.38 1.52 0.57 2.34 0.57zm14.723-14.22c-0.62 0-1.13-0.2-1.53-0.6-0.4-0.42-0.6-0.94-0.6-1.56 0-0.6 0.2-1.1 0.6-1.5 0.42-0.4 0.95-0.6 1.59-0.6s1.15 0.19 1.53 0.57c0.4 0.38 0.6 0.88 0.6 1.5s-0.21 1.14-0.63 1.56c-0.4 0.42-0.92 0.63-1.56 0.63zm-0.42 16.35c-0.46 0-0.83-0.11-1.11-0.33s-0.42-0.53-0.42-0.93l0.3-12.18c0-0.4 0.14-0.71 0.42-0.93 0.28-0.24 0.64-0.36 1.08-0.36s0.8 0.12 1.08 0.36c0.3 0.24 0.45 0.56 0.45 0.96l-0.3 12.18c-0.02 0.4-0.17 0.71-0.45 0.93-0.26 0.2-0.61 0.3-1.05 0.3zm14.652-15.12c1.7 0 2.99 0.61 3.87 1.83 0.9 1.2 1.35 3 1.35 5.4v6.93c0 0.38-0.13 0.67-0.39 0.87-0.26 0.18-0.61 0.27-1.05 0.27s-0.81-0.09-1.11-0.27-0.45-0.45-0.45-0.81l0.03-7.02c0-1.66-0.19-2.86-0.57-3.6-0.36-0.76-1.01-1.14-1.95-1.14-1.8 0-2.97 1.44-3.51 4.32-0.18 0.88-0.27 1.94-0.27 3.18l0.03 4.26c0 0.36-0.13 0.64-0.39 0.84-0.26 0.18-0.61 0.27-1.05 0.27-0.48 0-0.86-0.1-1.14-0.3-0.26-0.22-0.39-0.49-0.39-0.81 0-2-0.04-4.32-0.12-6.96-0.04-1.56-0.06-2.64-0.06-3.24-0.02-0.44-0.09-0.78-0.21-1.02-0.1-0.26-0.3-0.64-0.6-1.14-0.08-0.2-0.12-0.37-0.12-0.51 0-0.3 0.17-0.58 0.51-0.84s0.67-0.39 0.99-0.39c0.34 0 0.67 0.22 0.99 0.66 0.54 0.78 0.81 1.49 0.81 2.13v0.36c0.36-0.94 0.92-1.72 1.68-2.34 0.78-0.62 1.82-0.93 3.12-0.93zm22.906 11.01c0.16 1.06 0.27 1.89 0.33 2.49 0.08 0.6 0.12 1.18 0.12 1.74 0 1.48-0.31 2.79-0.93 3.93-0.6 1.14-1.46 2.03-2.58 2.67-1.1 0.64-2.38 0.96-3.84 0.96-1.12 0-2.15-0.22-3.09-0.66s-1.69-1.04-2.25-1.8-0.84-1.58-0.84-2.46c0-0.76 0.47-1.14 1.41-1.14 0.6 0 0.96 0.29 1.08 0.87 0.2 0.92 0.61 1.6 1.23 2.04 0.64 0.46 1.44 0.69 2.4 0.69 1.44 0 2.54-0.44 3.3-1.32 0.78-0.88 1.17-2.16 1.17-3.84 0-0.54-0.05-1.14-0.15-1.8-0.46 0.56-1.09 1.02-1.89 1.38-0.78 0.34-1.68 0.51-2.7 0.51-1.44 0-2.72-0.33-3.84-0.99-1.1-0.68-1.95-1.59-2.55-2.73s-0.9-2.38-0.9-3.72c0-1.38 0.29-2.66 0.87-3.84 0.6-1.18 1.44-2.11 2.52-2.79 1.1-0.7 2.35-1.05 3.75-1.05 1.56 0 2.79 0.39 3.69 1.17 0.08-0.24 0.26-0.68 0.54-1.32 0.2-0.4 0.53-0.6 0.99-0.6 0.38 0 0.74 0.11 1.08 0.33 0.36 0.2 0.55 0.46 0.57 0.78 0 0.14-0.01 0.24-0.03 0.3-0.34 1.08-0.54 1.76-0.6 2.04l1.02 7.32 0.12 0.84zm-7.08 1.74c0.88 0 1.73-0.24 2.55-0.72 0.84-0.48 1.34-1 1.5-1.56-0.12-1.14-0.35-2.71-0.69-4.71-0.02-0.2-0.1-0.71-0.24-1.53-0.18-0.38-0.58-0.74-1.2-1.08-0.6-0.34-1.28-0.51-2.04-0.51-0.84 0-1.59 0.23-2.25 0.69-0.66 0.44-1.18 1.06-1.56 1.86-0.36 0.78-0.54 1.65-0.54 2.61 0 1.38 0.38 2.55 1.14 3.51 0.78 0.96 1.89 1.44 3.33 1.44zm16.199 2.73c-1.38 0-2.57-0.33-3.57-0.99s-1.75-1.52-2.25-2.58c-0.14-0.28-0.21-0.5-0.21-0.66 0.02-0.34 0.21-0.64 0.57-0.9 0.36-0.28 0.72-0.4 1.08-0.36 0.2 0.04 0.35 0.12 0.45 0.24 0.12 0.1 0.28 0.28 0.48 0.54 0.54 0.74 1.05 1.31 1.53 1.71 0.5 0.38 1.15 0.57 1.95 0.57 0.74 0 1.36-0.18 1.86-0.54s0.75-0.81 0.75-1.35c0-0.58-0.26-1.02-0.78-1.32-0.52-0.32-1.34-0.68-2.46-1.08-1.04-0.34-1.89-0.67-2.55-0.99-0.66-0.34-1.23-0.8-1.71-1.38-0.46-0.6-0.69-1.36-0.69-2.28 0-0.84 0.23-1.6 0.69-2.28 0.48-0.7 1.14-1.24 1.98-1.62 0.84-0.4 1.79-0.6 2.85-0.6 1.08 0 2.03 0.21 2.85 0.63 0.82 0.4 1.45 0.94 1.89 1.62s0.66 1.42 0.66 2.22c0 0.46-0.11 0.8-0.33 1.02-0.2 0.2-0.54 0.3-1.02 0.3s-0.8-0.08-0.96-0.24c-0.16-0.18-0.25-0.41-0.27-0.69-0.08-0.78-0.36-1.37-0.84-1.77-0.46-0.42-1.12-0.63-1.98-0.63-0.9 0-1.56 0.21-1.98 0.63-0.4 0.4-0.6 0.85-0.6 1.35 0 0.6 0.26 1.06 0.78 1.38 0.54 0.32 1.39 0.68 2.55 1.08 1.04 0.36 1.88 0.7 2.52 1.02 0.66 0.32 1.22 0.77 1.68 1.35 0.46 0.56 0.69 1.29 0.69 2.19 0 0.96-0.27 1.77-0.81 2.43-0.52 0.66-1.21 1.16-2.07 1.5-0.86 0.32-1.77 0.48-2.73 0.48z" fill="#000"/>
</svg>
