<svg width="204" height="23" viewBox="0 0 204 23" fill="none" xmlns="http://www.w3.org/2000/svg">
<path d="M6.6 7.82C7.56 7.82 8.42 8.03333 9.18 8.46C9.95333 8.87333 10.5533 9.47333 10.98 10.26C11.42 11.0333 11.64 11.94 11.64 12.98C11.64 14.0867 11.4 15.02 10.92 15.78C10.44 16.54 9.81333 17.1067 9.04 17.48C8.26667 17.8533 7.43333 18.04 6.54 18.04C5.78 18.04 5.06 17.88 4.38 17.56C3.71333 17.2267 3.26 16.88 3.02 16.52C2.91333 16.7867 2.74667 17.0333 2.52 17.26C2.30667 17.4733 2.11333 17.62 1.94 17.7C1.80667 17.7667 1.66 17.8 1.5 17.8C1.26 17.8 1.05333 17.7133 0.88 17.54C0.706667 17.3533 0.62 17.1533 0.62 16.94C0.62 16.74 0.7 16.5667 0.86 16.42C0.9 16.38 0.98 16.3133 1.1 16.22C1.23333 16.1133 1.33333 15.9733 1.4 15.8C1.48 15.56 1.52 15.1667 1.52 14.62L1.48 12.68C1.48 12.36 1.46667 11.5867 1.44 10.36C1.41333 8.68 1.4 7.56667 1.4 7.02C1.37333 4.56667 1.33333 2.69333 1.28 1.4C1.26667 1.14667 1.35333 0.946666 1.54 0.8C1.74 0.653333 1.98667 0.579999 2.28 0.579999C2.54667 0.579999 2.76667 0.646666 2.94 0.779999C3.12667 0.913333 3.22667 1.09333 3.24 1.32C3.33333 3.08 3.38667 4.97333 3.4 7L3.44 9.02C3.73333 8.67333 4.14667 8.38667 4.68 8.16C5.21333 7.93333 5.85333 7.82 6.6 7.82ZM6.52 16.46C7.05333 16.46 7.55333 16.3333 8.02 16.08C8.5 15.8267 8.88667 15.44 9.18 14.92C9.48667 14.3867 9.64 13.7267 9.64 12.94C9.64 11.82 9.34667 10.9533 8.76 10.34C8.17333 9.71333 7.4 9.4 6.44 9.4C5.77333 9.4 5.17333 9.56667 4.64 9.9C4.12 10.2333 3.73333 10.6 3.48 11V12.5C3.48 13.1133 3.5 13.72 3.54 14.32C3.56667 14.6933 3.72 15.0467 4 15.38C4.29333 15.7 4.66 15.96 5.1 16.16C5.55333 16.36 6.02667 16.46 6.52 16.46ZM18.7544 18.04C17.181 18.04 15.8944 17.6267 14.8944 16.8C13.9077 15.96 13.4144 14.7067 13.4144 13.04C13.4144 11.9867 13.621 11.0533 14.0344 10.24C14.461 9.42667 15.061 8.79333 15.8344 8.34C16.621 7.88667 17.5477 7.66 18.6144 7.66C19.6544 7.66 20.581 7.88 21.3944 8.32C22.221 8.76 22.861 9.39333 23.3144 10.22C23.781 11.0333 24.0144 11.9867 24.0144 13.08C24.0144 14.68 23.5344 15.9067 22.5744 16.76C21.6144 17.6133 20.341 18.04 18.7544 18.04ZM18.7144 16.46C19.701 16.46 20.501 16.1733 21.1144 15.6C21.7277 15.0133 22.0344 14.16 22.0344 13.04C22.0344 12.32 21.8944 11.6733 21.6144 11.1C21.3477 10.5133 20.9544 10.06 20.4344 9.74C19.9277 9.40667 19.341 9.24 18.6744 9.24C17.6877 9.24 16.8944 9.58667 16.2944 10.28C15.7077 10.96 15.4144 11.8733 15.4144 13.02C15.4144 14.1933 15.7277 15.06 16.3544 15.62C16.981 16.18 17.7677 16.46 18.7144 16.46ZM31.1875 7.8C32.3208 7.8 33.1808 8.20667 33.7675 9.02C34.3675 9.82 34.6675 11.02 34.6675 12.62V17.24C34.6675 17.4933 34.5808 17.6867 34.4075 17.82C34.2342 17.94 34.0008 18 33.7075 18C33.4142 18 33.1675 17.94 32.9675 17.82C32.7675 17.7 32.6675 17.52 32.6675 17.28L32.6875 12.6C32.6875 11.4933 32.5608 10.6933 32.3075 10.2C32.0675 9.69333 31.6342 9.44 31.0075 9.44C29.8075 9.44 29.0275 10.4 28.6675 12.32C28.5475 12.9067 28.4875 13.6133 28.4875 14.44L28.5075 17.28C28.5075 17.52 28.4208 17.7067 28.2475 17.84C28.0742 17.96 27.8408 18.02 27.5475 18.02C27.2275 18.02 26.9742 17.9533 26.7875 17.82C26.6142 17.6733 26.5275 17.4933 26.5275 17.28C26.5275 15.9467 26.5008 14.4 26.4475 12.64C26.4208 11.6 26.4075 10.88 26.4075 10.48C26.3942 10.1867 26.3475 9.96 26.2675 9.8C26.2008 9.62667 26.0675 9.37333 25.8675 9.04C25.8142 8.90667 25.7875 8.79333 25.7875 8.7C25.7875 8.5 25.9008 8.31333 26.1275 8.14C26.3542 7.96667 26.5742 7.88 26.7875 7.88C27.0142 7.88 27.2342 8.02667 27.4475 8.32C27.8075 8.84 27.9875 9.31333 27.9875 9.74V9.98C28.2275 9.35333 28.6008 8.83333 29.1075 8.42C29.6275 8.00667 30.3208 7.8 31.1875 7.8ZM42.1384 18.12C41.1651 18.12 40.2784 17.9267 39.4784 17.54C38.6918 17.14 38.0651 16.5533 37.5984 15.78C37.1451 14.9933 36.9184 14.04 36.9184 12.92C36.9184 11.88 37.1318 10.9733 37.5584 10.2C37.9851 9.42667 38.5918 8.83333 39.3784 8.42C40.1651 8.00667 41.0851 7.8 42.1384 7.8C42.8184 7.8 43.4118 7.89333 43.9184 8.08C44.4251 8.26667 44.8384 8.50667 45.1584 8.8C45.2384 5.58667 45.3384 3.14667 45.4584 1.48C45.4851 1.25333 45.5851 1.06667 45.7584 0.919999C45.9451 0.773332 46.1718 0.699999 46.4384 0.699999C46.7451 0.699999 46.9918 0.779999 47.1784 0.939999C47.3784 1.1 47.4718 1.30667 47.4584 1.56C47.3651 2.44 47.2784 4.05333 47.1984 6.4C47.1318 8.74667 47.0984 10.84 47.0984 12.68C47.0984 14.4533 47.1384 15.5 47.2184 15.82C47.3651 16.3667 47.5651 16.7067 47.8184 16.84C47.8718 16.8667 47.8984 16.96 47.8984 17.12C47.8984 17.36 47.7851 17.58 47.5584 17.78C47.3451 17.98 47.1051 18.08 46.8384 18.08C46.6118 18.08 46.4318 18.0267 46.2984 17.92C45.8318 17.6533 45.5184 17.1867 45.3584 16.52C45.0251 17.0133 44.5784 17.4067 44.0184 17.7C43.4584 17.98 42.8318 18.12 42.1384 18.12ZM42.1184 16.46C42.6251 16.46 43.1051 16.34 43.5584 16.1C44.0251 15.86 44.3984 15.5467 44.6784 15.16C44.9584 14.76 45.0984 14.34 45.0984 13.9C45.0984 13.2867 45.1051 12.8067 45.1184 12.46L45.1384 10.86C44.9384 10.5133 44.5584 10.1933 43.9984 9.9C43.4518 9.59333 42.8518 9.44 42.1984 9.44C41.1851 9.44 40.3784 9.75333 39.7784 10.38C39.1918 11.0067 38.8984 11.8733 38.8984 12.98C38.8984 13.74 39.0518 14.3867 39.3584 14.92C39.6784 15.44 40.0784 15.8267 40.5584 16.08C41.0518 16.3333 41.5718 16.46 42.1184 16.46ZM51.9342 6.98C51.5209 6.98 51.1809 6.84667 50.9142 6.58C50.6476 6.3 50.5142 5.95333 50.5142 5.54C50.5142 5.14 50.6476 4.80667 50.9142 4.54C51.1942 4.27333 51.5476 4.14 51.9742 4.14C52.4009 4.14 52.7409 4.26667 52.9942 4.52C53.2609 4.77333 53.3942 5.10667 53.3942 5.52C53.3942 5.93333 53.2542 6.28 52.9742 6.56C52.7076 6.84 52.3609 6.98 51.9342 6.98ZM51.6542 17.88C51.3476 17.88 51.1009 17.8067 50.9142 17.66C50.7276 17.5133 50.6342 17.3067 50.6342 17.04L50.8342 8.92C50.8342 8.65333 50.9276 8.44667 51.1142 8.3C51.3009 8.14 51.5409 8.06 51.8342 8.06C52.1276 8.06 52.3676 8.14 52.5542 8.3C52.7542 8.46 52.8542 8.67333 52.8542 8.94L52.6542 17.06C52.6409 17.3267 52.5409 17.5333 52.3542 17.68C52.1809 17.8133 51.9476 17.88 51.6542 17.88ZM61.4219 7.8C62.5552 7.8 63.4152 8.20667 64.0019 9.02C64.6019 9.82 64.9019 11.02 64.9019 12.62V17.24C64.9019 17.4933 64.8152 17.6867 64.6419 17.82C64.4685 17.94 64.2352 18 63.9419 18C63.6485 18 63.4019 17.94 63.2019 17.82C63.0019 17.7 62.9019 17.52 62.9019 17.28L62.9219 12.6C62.9219 11.4933 62.7952 10.6933 62.5419 10.2C62.3019 9.69333 61.8685 9.44 61.2419 9.44C60.0419 9.44 59.2619 10.4 58.9019 12.32C58.7819 12.9067 58.7219 13.6133 58.7219 14.44L58.7419 17.28C58.7419 17.52 58.6552 17.7067 58.4819 17.84C58.3085 17.96 58.0752 18.02 57.7819 18.02C57.4619 18.02 57.2085 17.9533 57.0219 17.82C56.8485 17.6733 56.7619 17.4933 56.7619 17.28C56.7619 15.9467 56.7352 14.4 56.6819 12.64C56.6552 11.6 56.6419 10.88 56.6419 10.48C56.6285 10.1867 56.5819 9.96 56.5019 9.8C56.4352 9.62667 56.3019 9.37333 56.1019 9.04C56.0485 8.90667 56.0219 8.79333 56.0219 8.7C56.0219 8.5 56.1352 8.31333 56.3619 8.14C56.5885 7.96667 56.8085 7.88 57.0219 7.88C57.2485 7.88 57.4685 8.02667 57.6819 8.32C58.0419 8.84 58.2219 9.31333 58.2219 9.74V9.98C58.4619 9.35333 58.8352 8.83333 59.3419 8.42C59.8619 8.00667 60.5552 7.8 61.4219 7.8ZM76.6928 15.14C76.7995 15.8467 76.8728 16.4 76.9128 16.8C76.9661 17.2 76.9928 17.5867 76.9928 17.96C76.9928 18.9467 76.7861 19.82 76.3728 20.58C75.9728 21.34 75.3995 21.9333 74.6528 22.36C73.9195 22.7867 73.0661 23 72.0928 23C71.3461 23 70.6595 22.8533 70.0328 22.56C69.4061 22.2667 68.9061 21.8667 68.5328 21.36C68.1595 20.8533 67.9728 20.3067 67.9728 19.72C67.9728 19.2133 68.2861 18.96 68.9128 18.96C69.3128 18.96 69.5528 19.1533 69.6328 19.54C69.7661 20.1533 70.0395 20.6067 70.4528 20.9C70.8795 21.2067 71.4128 21.36 72.0528 21.36C73.0128 21.36 73.7461 21.0667 74.2528 20.48C74.7728 19.8933 75.0328 19.04 75.0328 17.92C75.0328 17.56 74.9995 17.16 74.9328 16.72C74.6261 17.0933 74.2061 17.4 73.6728 17.64C73.1528 17.8667 72.5528 17.98 71.8728 17.98C70.9128 17.98 70.0595 17.76 69.3128 17.32C68.5795 16.8667 68.0128 16.26 67.6128 15.5C67.2128 14.74 67.0128 13.9133 67.0128 13.02C67.0128 12.1 67.2061 11.2467 67.5928 10.46C67.9928 9.67333 68.5528 9.05333 69.2728 8.6C70.0061 8.13333 70.8395 7.9 71.7728 7.9C72.8128 7.9 73.6328 8.16 74.2328 8.68C74.2861 8.52 74.4061 8.22667 74.5928 7.8C74.7261 7.53333 74.9461 7.4 75.2528 7.4C75.5061 7.4 75.7461 7.47333 75.9728 7.62C76.2128 7.75333 76.3395 7.92667 76.3528 8.14C76.3528 8.23333 76.3461 8.3 76.3328 8.34C76.1061 9.06 75.9728 9.51333 75.9328 9.7L76.6128 14.58L76.6928 15.14ZM71.9728 16.3C72.5595 16.3 73.1261 16.14 73.6728 15.82C74.2328 15.5 74.5661 15.1533 74.6728 14.78C74.5928 14.02 74.4395 12.9733 74.2128 11.64C74.1995 11.5067 74.1461 11.1667 74.0528 10.62C73.9328 10.3667 73.6661 10.1267 73.2528 9.9C72.8528 9.67333 72.3995 9.56 71.8928 9.56C71.3328 9.56 70.8328 9.71333 70.3928 10.02C69.9528 10.3133 69.6061 10.7267 69.3528 11.26C69.1128 11.78 68.9928 12.36 68.9928 13C68.9928 13.92 69.2461 14.7 69.7528 15.34C70.2728 15.98 71.0128 16.3 71.9728 16.3ZM83.852 18.04C82.2787 18.04 80.992 17.6267 79.992 16.8C79.0054 15.96 78.512 14.7067 78.512 13.04C78.512 11.9867 78.7187 11.0533 79.132 10.24C79.5587 9.42667 80.1587 8.79333 80.932 8.34C81.7187 7.88667 82.6454 7.66 83.712 7.66C84.752 7.66 85.6787 7.88 86.492 8.32C87.3187 8.76 87.9587 9.39333 88.412 10.22C88.8787 11.0333 89.112 11.9867 89.112 13.08C89.112 14.68 88.632 15.9067 87.672 16.76C86.712 17.6133 85.4387 18.04 83.852 18.04ZM83.812 16.46C84.7987 16.46 85.5987 16.1733 86.212 15.6C86.8254 15.0133 87.132 14.16 87.132 13.04C87.132 12.32 86.992 11.6733 86.712 11.1C86.4454 10.5133 86.052 10.06 85.532 9.74C85.0254 9.40667 84.4387 9.24 83.772 9.24C82.7854 9.24 81.992 9.58667 81.392 10.28C80.8054 10.96 80.512 11.8733 80.512 13.02C80.512 14.1933 80.8254 15.06 81.452 15.62C82.0787 16.18 82.8654 16.46 83.812 16.46ZM95.0252 17.92C93.9718 17.92 92.9252 16.4733 91.8852 13.58C91.5652 12.66 91.2918 11.74 91.0652 10.82C90.8385 9.9 90.7252 9.24667 90.7252 8.86C90.7252 8.55333 90.8118 8.32667 90.9852 8.18C91.1718 8.02 91.4185 7.94 91.7252 7.94C91.9785 7.94 92.1918 8.00667 92.3652 8.14C92.5385 8.27333 92.6452 8.46667 92.6852 8.72C92.8452 9.92 93.1518 11.2533 93.6052 12.72C93.8585 13.5067 94.1252 14.2133 94.4052 14.84C94.6985 15.4533 94.9052 15.76 95.0252 15.76C95.1585 15.76 95.3785 15.4533 95.6852 14.84C95.9918 14.2133 96.2852 13.5 96.5652 12.7C96.8718 11.7533 97.0918 10.98 97.2252 10.38C97.3718 9.76667 97.4785 9.18667 97.5452 8.64C97.5718 8.4 97.6718 8.20667 97.8452 8.06C98.0185 7.91333 98.2518 7.84 98.5452 7.84C98.8518 7.84 99.0918 7.92667 99.2652 8.1C99.4385 8.27333 99.5252 8.51333 99.5252 8.82C99.5252 9.22 99.4052 9.86 99.1652 10.74C98.9385 11.62 98.6452 12.54 98.2852 13.5C97.7385 14.9267 97.1985 16.02 96.6652 16.78C96.1318 17.54 95.5852 17.92 95.0252 17.92ZM106.829 18.12C105.696 18.12 104.723 17.8867 103.909 17.42C103.109 16.9533 102.503 16.3267 102.089 15.54C101.689 14.7533 101.489 13.8867 101.489 12.94C101.489 11.9667 101.709 11.0867 102.149 10.3C102.589 9.5 103.209 8.87333 104.009 8.42C104.809 7.95333 105.723 7.72 106.749 7.72C107.656 7.72 108.469 7.90667 109.189 8.28C109.923 8.64 110.496 9.15333 110.909 9.82C111.323 10.4867 111.529 11.2467 111.529 12.1C111.529 12.5533 111.463 12.88 111.329 13.08C111.196 13.2667 110.923 13.3667 110.509 13.38L103.289 13.48C103.289 13.92 103.429 14.3733 103.709 14.84C103.989 15.3067 104.389 15.7 104.909 16.02C105.443 16.3267 106.063 16.48 106.769 16.48C107.276 16.48 107.703 16.4133 108.049 16.28C108.409 16.1333 108.696 15.9667 108.909 15.78C109.123 15.58 109.376 15.32 109.669 15C109.816 14.8533 110.003 14.78 110.229 14.78C110.443 14.78 110.643 14.8667 110.829 15.04C111.029 15.2 111.129 15.3867 111.129 15.6C111.129 15.7733 111.069 15.94 110.949 16.1C110.576 16.6333 110.076 17.1067 109.449 17.52C108.823 17.92 107.949 18.12 106.829 18.12ZM109.649 11.96C109.729 11.96 109.783 11.94 109.809 11.9C109.849 11.8467 109.869 11.7733 109.869 11.68C109.869 10.9733 109.569 10.4 108.969 9.96C108.383 9.50667 107.643 9.28 106.749 9.28C106.069 9.28 105.463 9.44 104.929 9.76C104.409 10.08 104.003 10.4667 103.709 10.92C103.429 11.36 103.289 11.7467 103.289 12.08L109.649 11.96ZM118.996 7.68C119.849 7.68 120.529 7.95333 121.036 8.5C121.542 9.04667 121.796 9.72667 121.796 10.54C121.796 11.3133 121.556 11.92 121.076 12.36C120.596 12.8 119.976 13.02 119.216 13.02C118.882 13.02 118.642 12.9733 118.496 12.88C118.362 12.7733 118.296 12.5933 118.296 12.34C118.296 12.1133 118.342 11.9533 118.436 11.86C118.542 11.7533 118.696 11.6933 118.896 11.68C119.736 11.6133 120.156 11.22 120.156 10.5C120.156 10.1533 120.056 9.86 119.856 9.62C119.669 9.38 119.376 9.26 118.976 9.26C118.509 9.26 118.089 9.48 117.716 9.92C117.356 10.36 117.062 10.8933 116.836 11.52C116.622 12.1467 116.496 12.74 116.456 13.3C116.362 14.3 116.316 15.42 116.316 16.66C116.316 17.26 116.249 17.66 116.116 17.86C115.982 18.06 115.729 18.16 115.356 18.16C114.996 18.16 114.736 18.0867 114.576 17.94C114.429 17.78 114.356 17.52 114.356 17.16C114.342 16.9067 114.336 15.7 114.336 13.54C114.336 12.46 114.262 11.2133 114.116 9.8L113.996 8.26C113.982 8.00667 114.056 7.80667 114.216 7.66C114.389 7.51333 114.629 7.44 114.936 7.44C115.469 7.44 115.749 7.68 115.776 8.16L115.916 10.2C116.156 9.44 116.542 8.83333 117.076 8.38C117.609 7.91333 118.249 7.68 118.996 7.68ZM129.432 7.82C130.392 7.82 131.252 8.03333 132.012 8.46C132.785 8.87333 133.385 9.47333 133.812 10.26C134.252 11.0333 134.472 11.94 134.472 12.98C134.472 14.0867 134.232 15.02 133.752 15.78C133.272 16.54 132.645 17.1067 131.872 17.48C131.099 17.8533 130.265 18.04 129.372 18.04C128.612 18.04 127.892 17.88 127.212 17.56C126.545 17.2267 126.092 16.88 125.852 16.52C125.745 16.7867 125.579 17.0333 125.352 17.26C125.139 17.4733 124.945 17.62 124.772 17.7C124.639 17.7667 124.492 17.8 124.332 17.8C124.092 17.8 123.885 17.7133 123.712 17.54C123.539 17.3533 123.452 17.1533 123.452 16.94C123.452 16.74 123.532 16.5667 123.692 16.42C123.732 16.38 123.812 16.3133 123.932 16.22C124.065 16.1133 124.165 15.9733 124.232 15.8C124.312 15.56 124.352 15.1667 124.352 14.62L124.312 12.68C124.312 12.36 124.299 11.5867 124.272 10.36C124.245 8.68 124.232 7.56667 124.232 7.02C124.205 4.56667 124.165 2.69333 124.112 1.4C124.099 1.14667 124.185 0.946666 124.372 0.8C124.572 0.653333 124.819 0.579999 125.112 0.579999C125.379 0.579999 125.599 0.646666 125.772 0.779999C125.959 0.913333 126.059 1.09333 126.072 1.32C126.165 3.08 126.219 4.97333 126.232 7L126.272 9.02C126.565 8.67333 126.979 8.38667 127.512 8.16C128.045 7.93333 128.685 7.82 129.432 7.82ZM129.352 16.46C129.885 16.46 130.385 16.3333 130.852 16.08C131.332 15.8267 131.719 15.44 132.012 14.92C132.319 14.3867 132.472 13.7267 132.472 12.94C132.472 11.82 132.179 10.9533 131.592 10.34C131.005 9.71333 130.232 9.4 129.272 9.4C128.605 9.4 128.005 9.56667 127.472 9.9C126.952 10.2333 126.565 10.6 126.312 11V12.5C126.312 13.1133 126.332 13.72 126.372 14.32C126.399 14.6933 126.552 15.0467 126.832 15.38C127.125 15.7 127.492 15.96 127.932 16.16C128.385 16.36 128.859 16.46 129.352 16.46ZM138.926 6.98C138.513 6.98 138.173 6.84667 137.906 6.58C137.64 6.3 137.506 5.95333 137.506 5.54C137.506 5.14 137.64 4.80667 137.906 4.54C138.186 4.27333 138.54 4.14 138.966 4.14C139.393 4.14 139.733 4.26667 139.986 4.52C140.253 4.77333 140.386 5.10667 140.386 5.52C140.386 5.93333 140.246 6.28 139.966 6.56C139.7 6.84 139.353 6.98 138.926 6.98ZM138.646 17.88C138.34 17.88 138.093 17.8067 137.906 17.66C137.72 17.5133 137.626 17.3067 137.626 17.04L137.826 8.92C137.826 8.65333 137.92 8.44667 138.106 8.3C138.293 8.14 138.533 8.06 138.826 8.06C139.12 8.06 139.36 8.14 139.546 8.3C139.746 8.46 139.846 8.67333 139.846 8.94L139.646 17.06C139.633 17.3267 139.533 17.5333 139.346 17.68C139.173 17.8133 138.94 17.88 138.646 17.88ZM148.414 7.8C149.547 7.8 150.407 8.20667 150.994 9.02C151.594 9.82 151.894 11.02 151.894 12.62V17.24C151.894 17.4933 151.807 17.6867 151.634 17.82C151.461 17.94 151.227 18 150.934 18C150.641 18 150.394 17.94 150.194 17.82C149.994 17.7 149.894 17.52 149.894 17.28L149.914 12.6C149.914 11.4933 149.787 10.6933 149.534 10.2C149.294 9.69333 148.861 9.44 148.234 9.44C147.034 9.44 146.254 10.4 145.894 12.32C145.774 12.9067 145.714 13.6133 145.714 14.44L145.734 17.28C145.734 17.52 145.647 17.7067 145.474 17.84C145.301 17.96 145.067 18.02 144.774 18.02C144.454 18.02 144.201 17.9533 144.014 17.82C143.841 17.6733 143.754 17.4933 143.754 17.28C143.754 15.9467 143.727 14.4 143.674 12.64C143.647 11.6 143.634 10.88 143.634 10.48C143.621 10.1867 143.574 9.96 143.494 9.8C143.427 9.62667 143.294 9.37333 143.094 9.04C143.041 8.90667 143.014 8.79333 143.014 8.7C143.014 8.5 143.127 8.31333 143.354 8.14C143.581 7.96667 143.801 7.88 144.014 7.88C144.241 7.88 144.461 8.02667 144.674 8.32C145.034 8.84 145.214 9.31333 145.214 9.74V9.98C145.454 9.35333 145.827 8.83333 146.334 8.42C146.854 8.00667 147.547 7.8 148.414 7.8ZM159.365 18.12C158.392 18.12 157.505 17.9267 156.705 17.54C155.918 17.14 155.292 16.5533 154.825 15.78C154.372 14.9933 154.145 14.04 154.145 12.92C154.145 11.88 154.358 10.9733 154.785 10.2C155.212 9.42667 155.818 8.83333 156.605 8.42C157.392 8.00667 158.312 7.8 159.365 7.8C160.045 7.8 160.638 7.89333 161.145 8.08C161.652 8.26667 162.065 8.50667 162.385 8.8C162.465 5.58667 162.565 3.14667 162.685 1.48C162.712 1.25333 162.812 1.06667 162.985 0.919999C163.172 0.773332 163.398 0.699999 163.665 0.699999C163.972 0.699999 164.218 0.779999 164.405 0.939999C164.605 1.1 164.698 1.30667 164.685 1.56C164.592 2.44 164.505 4.05333 164.425 6.4C164.358 8.74667 164.325 10.84 164.325 12.68C164.325 14.4533 164.365 15.5 164.445 15.82C164.592 16.3667 164.792 16.7067 165.045 16.84C165.098 16.8667 165.125 16.96 165.125 17.12C165.125 17.36 165.012 17.58 164.785 17.78C164.572 17.98 164.332 18.08 164.065 18.08C163.838 18.08 163.658 18.0267 163.525 17.92C163.058 17.6533 162.745 17.1867 162.585 16.52C162.252 17.0133 161.805 17.4067 161.245 17.7C160.685 17.98 160.058 18.12 159.365 18.12ZM159.345 16.46C159.852 16.46 160.332 16.34 160.785 16.1C161.252 15.86 161.625 15.5467 161.905 15.16C162.185 14.76 162.325 14.34 162.325 13.9C162.325 13.2867 162.332 12.8067 162.345 12.46L162.365 10.86C162.165 10.5133 161.785 10.1933 161.225 9.9C160.678 9.59333 160.078 9.44 159.425 9.44C158.412 9.44 157.605 9.75333 157.005 10.38C156.418 11.0067 156.125 11.8733 156.125 12.98C156.125 13.74 156.278 14.3867 156.585 14.92C156.905 15.44 157.305 15.8267 157.785 16.08C158.278 16.3333 158.798 16.46 159.345 16.46ZM169.161 6.98C168.747 6.98 168.407 6.84667 168.141 6.58C167.874 6.3 167.741 5.95333 167.741 5.54C167.741 5.14 167.874 4.80667 168.141 4.54C168.421 4.27333 168.774 4.14 169.201 4.14C169.627 4.14 169.967 4.26667 170.221 4.52C170.487 4.77333 170.621 5.10667 170.621 5.52C170.621 5.93333 170.481 6.28 170.201 6.56C169.934 6.84 169.587 6.98 169.161 6.98ZM168.881 17.88C168.574 17.88 168.327 17.8067 168.141 17.66C167.954 17.5133 167.861 17.3067 167.861 17.04L168.061 8.92C168.061 8.65333 168.154 8.44667 168.341 8.3C168.527 8.14 168.767 8.06 169.061 8.06C169.354 8.06 169.594 8.14 169.781 8.3C169.981 8.46 170.081 8.67333 170.081 8.94L169.881 17.06C169.867 17.3267 169.767 17.5333 169.581 17.68C169.407 17.8133 169.174 17.88 168.881 17.88ZM178.648 7.8C179.782 7.8 180.642 8.20667 181.228 9.02C181.828 9.82 182.128 11.02 182.128 12.62V17.24C182.128 17.4933 182.042 17.6867 181.868 17.82C181.695 17.94 181.462 18 181.168 18C180.875 18 180.628 17.94 180.428 17.82C180.228 17.7 180.128 17.52 180.128 17.28L180.148 12.6C180.148 11.4933 180.022 10.6933 179.768 10.2C179.528 9.69333 179.095 9.44 178.468 9.44C177.268 9.44 176.488 10.4 176.128 12.32C176.008 12.9067 175.948 13.6133 175.948 14.44L175.968 17.28C175.968 17.52 175.882 17.7067 175.708 17.84C175.535 17.96 175.302 18.02 175.008 18.02C174.688 18.02 174.435 17.9533 174.248 17.82C174.075 17.6733 173.988 17.4933 173.988 17.28C173.988 15.9467 173.962 14.4 173.908 12.64C173.882 11.6 173.868 10.88 173.868 10.48C173.855 10.1867 173.808 9.96 173.728 9.8C173.662 9.62667 173.528 9.37333 173.328 9.04C173.275 8.90667 173.248 8.79333 173.248 8.7C173.248 8.5 173.362 8.31333 173.588 8.14C173.815 7.96667 174.035 7.88 174.248 7.88C174.475 7.88 174.695 8.02667 174.908 8.32C175.268 8.84 175.448 9.31333 175.448 9.74V9.98C175.688 9.35333 176.062 8.83333 176.568 8.42C177.088 8.00667 177.782 7.8 178.648 7.8ZM193.919 15.14C194.026 15.8467 194.099 16.4 194.139 16.8C194.193 17.2 194.219 17.5867 194.219 17.96C194.219 18.9467 194.013 19.82 193.599 20.58C193.199 21.34 192.626 21.9333 191.879 22.36C191.146 22.7867 190.293 23 189.319 23C188.573 23 187.886 22.8533 187.259 22.56C186.633 22.2667 186.133 21.8667 185.759 21.36C185.386 20.8533 185.199 20.3067 185.199 19.72C185.199 19.2133 185.513 18.96 186.139 18.96C186.539 18.96 186.779 19.1533 186.859 19.54C186.993 20.1533 187.266 20.6067 187.679 20.9C188.106 21.2067 188.639 21.36 189.279 21.36C190.239 21.36 190.973 21.0667 191.479 20.48C191.999 19.8933 192.259 19.04 192.259 17.92C192.259 17.56 192.226 17.16 192.159 16.72C191.853 17.0933 191.433 17.4 190.899 17.64C190.379 17.8667 189.779 17.98 189.099 17.98C188.139 17.98 187.286 17.76 186.539 17.32C185.806 16.8667 185.239 16.26 184.839 15.5C184.439 14.74 184.239 13.9133 184.239 13.02C184.239 12.1 184.433 11.2467 184.819 10.46C185.219 9.67333 185.779 9.05333 186.499 8.6C187.233 8.13333 188.066 7.9 188.999 7.9C190.039 7.9 190.859 8.16 191.459 8.68C191.513 8.52 191.633 8.22667 191.819 7.8C191.953 7.53333 192.173 7.4 192.479 7.4C192.733 7.4 192.973 7.47333 193.199 7.62C193.439 7.75333 193.566 7.92667 193.579 8.14C193.579 8.23333 193.573 8.3 193.559 8.34C193.333 9.06 193.199 9.51333 193.159 9.7L193.839 14.58L193.919 15.14ZM189.199 16.3C189.786 16.3 190.353 16.14 190.899 15.82C191.459 15.5 191.793 15.1533 191.899 14.78C191.819 14.02 191.666 12.9733 191.439 11.64C191.426 11.5067 191.373 11.1667 191.279 10.62C191.159 10.3667 190.893 10.1267 190.479 9.9C190.079 9.67333 189.626 9.56 189.119 9.56C188.559 9.56 188.059 9.71333 187.619 10.02C187.179 10.3133 186.833 10.7267 186.579 11.26C186.339 11.78 186.219 12.36 186.219 13C186.219 13.92 186.473 14.7 186.979 15.34C187.499 15.98 188.239 16.3 189.199 16.3ZM199.999 18.12C199.079 18.12 198.285 17.9 197.619 17.46C196.952 17.02 196.452 16.4467 196.119 15.74C196.025 15.5533 195.979 15.4067 195.979 15.3C195.992 15.0733 196.119 14.8733 196.359 14.7C196.599 14.5133 196.839 14.4333 197.079 14.46C197.212 14.4867 197.312 14.54 197.379 14.62C197.459 14.6867 197.565 14.8067 197.699 14.98C198.059 15.4733 198.399 15.8533 198.719 16.12C199.052 16.3733 199.485 16.5 200.019 16.5C200.512 16.5 200.925 16.38 201.259 16.14C201.592 15.9 201.759 15.6 201.759 15.24C201.759 14.8533 201.585 14.56 201.239 14.36C200.892 14.1467 200.345 13.9067 199.599 13.64C198.905 13.4133 198.339 13.1933 197.899 12.98C197.459 12.7533 197.079 12.4467 196.759 12.06C196.452 11.66 196.299 11.1533 196.299 10.54C196.299 9.98 196.452 9.47333 196.759 9.02C197.079 8.55333 197.519 8.19333 198.079 7.94C198.639 7.67333 199.272 7.54 199.979 7.54C200.699 7.54 201.332 7.68 201.879 7.96C202.425 8.22667 202.845 8.58667 203.139 9.04C203.432 9.49333 203.579 9.98667 203.579 10.52C203.579 10.8267 203.505 11.0533 203.359 11.2C203.225 11.3333 202.999 11.4 202.679 11.4C202.359 11.4 202.145 11.3467 202.039 11.24C201.932 11.12 201.872 10.9667 201.859 10.78C201.805 10.26 201.619 9.86667 201.299 9.6C200.992 9.32 200.552 9.18 199.979 9.18C199.379 9.18 198.939 9.32 198.659 9.6C198.392 9.86667 198.259 10.1667 198.259 10.5C198.259 10.9 198.432 11.2067 198.779 11.42C199.139 11.6333 199.705 11.8733 200.479 12.14C201.172 12.38 201.732 12.6067 202.159 12.82C202.599 13.0333 202.972 13.3333 203.279 13.72C203.585 14.0933 203.739 14.58 203.739 15.18C203.739 15.82 203.559 16.36 203.199 16.8C202.852 17.24 202.392 17.5733 201.819 17.8C201.245 18.0133 200.639 18.12 199.999 18.12Z" fill="white"/>
</svg>
